<?xml version="1.0" encoding="utf-8"?>
<!-- Generator: Adobe Illustrator 20.1.0, SVG Export Plug-In . SVG Version: 6.00 Build 0)  -->
<svg version="1.1" id="レイヤー_1" xmlns="http://www.w3.org/2000/svg" xmlns:xlink="http://www.w3.org/1999/xlink" x="0px"
	 y="0px" viewBox="0 0 30 25" style="enable-background:new 0 0 30 25;" xml:space="preserve">
<title>close</title>
<g id="レイヤー_2">
	<g id="レイヤー_1-2">
		<path d="M6.3,0.6l20.5,20.5c0.9,0.9,0.9,2.3,0,3.2l0,0c-0.9,0.9-2.3,0.9-3.2,0L3.2,3.8c-0.9-0.9-0.9-2.3,0-3.2l0,0
			C4-0.2,5.5-0.2,6.3,0.6z"/>
		<path d="M3.2,21.2L23.7,0.7c0.9-0.9,2.3-0.9,3.2,0l0,0c0.9,0.9,0.9,2.3,0,3.2L6.3,24.3c-0.9,0.9-2.3,0.9-3.2,0l0,0
			C2.3,23.5,2.3,22.1,3.2,21.2z"/>
	</g>
</g>
</svg>
