<svg xmlns="http://www.w3.org/2000/svg" viewBox="0 0 30 25"><title>menu</title><g id="レイヤー_2" data-name="レイヤー 2"><g id="レイヤー_1-2" data-name="レイヤー 1"><g id="レイヤー_2-2" data-name="レイヤー 2"><g id="レイヤー_1-2-2" data-name="レイヤー 1-2"><g id="レイヤー_2-2-2" data-name="レイヤー 2-2"><g id="レイヤー_1-2-2-2" data-name="レイヤー 1-2-2"><path d="M2,0H28a2,2,0,0,1,2,2h0a2,2,0,0,1-2,2H2A2,2,0,0,1,0,2H0A2,2,0,0,1,2,0Z"/><path d="M2,10.51H28a2,2,0,0,1,2,2h0a2,2,0,0,1-2,2H2a2,2,0,0,1-2-2H0A2,2,0,0,1,2,10.51Z"/><path d="M2,21H28a2,2,0,0,1,2,2h0a2,2,0,0,1-2,2H2a2,2,0,0,1-2-2H0A2,2,0,0,1,2,21Z"/></g></g></g></g></g></g></svg>